<?xml version="1.0" encoding="UTF-8"?>
<svg id="Camada_2" data-name="Camada 2" xmlns="http://www.w3.org/2000/svg" viewBox="0 0 331.72 452.64">
  <defs>
    <style>
      .cls-1, .cls-2, .cls-3, .cls-4 {
        stroke: #000;
        stroke-miterlimit: 10;
      }

      .cls-1, .cls-4 {
        stroke-width: .23px;
      }

      .cls-2, .cls-3 {
        stroke-width: .26px;
      }

      .cls-3, .cls-4 {
        fill: none;
      }
    </style>
  </defs>
  <g id="Camada_2-2" data-name="Camada 2">
    <path class="cls-2" d="M87.35,388.95c-.89-.14-1.8-.24-2.73-.28.38-.04.76-.05,1.14-.03.53.03,1.06.14,1.59.32Z"/>
    <path class="cls-2" d="M87.35,388.95c-.89-.14-1.8-.24-2.73-.28.38-.04.76-.05,1.14-.03.53.03,1.06.14,1.59.32Z"/>
    <path class="cls-2" d="M87.35,388.95c-.89-.14-1.8-.24-2.73-.28.38-.04.76-.05,1.14-.03.53.03,1.06.14,1.59.32Z"/>
    <path class="cls-3" d="M78.84,384.03h0"/>
    <path class="cls-2" d="M206.77,209.37c-.89-.14-1.8-.24-2.73-.28.38-.04.76-.05,1.14-.03.53.03,1.06.14,1.59.32Z"/>
    <path class="cls-2" d="M206.77,209.37c-.89-.14-1.8-.24-2.73-.28.38-.04.76-.05,1.14-.03.53.03,1.06.14,1.59.32Z"/>
    <path class="cls-2" d="M206.77,209.37c-.89-.14-1.8-.24-2.73-.28.38-.04.76-.05,1.14-.03.53.03,1.06.14,1.59.32Z"/>
    <path class="cls-1" d="M225.96,15.69c-1.83,1.79-4.06,2.99-5.51,3.65-.44.2-.88-.29-.63-.7.73-1.21,1.21-2.42,1.52-3.36.16-.48-.4-.85-.79-.54-1.83,1.44-4.33,2.06-5.91,2.31-.49.08-.78-.52-.42-.86l.28-.26c.33-.31.12-.86-.32-.87-4.34-.05-12.81-3.9-16.41-5.6-.22-.1-.42-.19-.6-.28-.38-.18-.38-.73,0-.91.12-.05.23-.11.36-.17.45-.21.35-.87-.14-.95-6.32-.89-19.04-6.46-20.26-7-.06-.03-.13-.04-.2-.04-7.97.02-11.36,3.18-12.73,5.23-.27.41-.9.22-.91-.26-.01-.29-.26-.48-.51-.48-.12,0-.25.04-.35.14-9.09,9.35-13.38,23.27-13.71,24.38-.02.05-.02.09-.02.14.81,43.48-26.26,50.58-33.8,56.65-4.85,3.9-6.97,8.94-6.93,12.14-.01.36,0,.66.01.87.01.26.22.46.47.47l.39.02c.55.03.66.8.13.97-10.22,3.31-19.83,13.82-20.77,14.87-.05.06-.09.12-.11.19-6.09,20.69,12.41,35.08,15.25,37.14.2.15.26.42.14.65-1.84,3.37-3.66,9.24-4.75,13.16-.15.53-.93.46-.98-.09-.96-11.65-11.02-25.91-12.98-28.58-.18-.24-.52-.27-.75-.07-12.31,11.23-16.07,21.25-16.46,22.36l-.02.21c2.14,17.52-2.14,24.86-2.79,25.85l-.07.26c0,5.96.91,8.58,1.22,9.34.07.16.04.33-.06.47-3.06,4.41-3.2,10.06-3.21,10.98l.07.23c.83,1.35,1.62,2.7,2.35,4.02,12.39,8.51,26.73,14.41,42.21,16.87.02-9.02-10.3-21.79-11.4-23.12l-.11-.26c-.38-3.75,1.07-8.67,2.15-11.66.17-.48.88-.42.96.08,1.26,7.65,10.84,25.53,9.61,35.15,2.35.35,4.74.62,7.14.81,1.06-9.89-6.59-25.57-8.02-28.38-.12-.24-.02-.53.22-.66.78-.4,1.53-.81,2.27-1.23,18.21-10.54,22.91-28.75,24.08-38.96.07-.62,1-.57,1,.05.04,8.98-2.24,24.24-16.14,36.07-.25.22-.23.61.04.79,2.81,1.93,15.87,10.74,19.89,10.96,3.93.22,2.03,17.26,1.47,21.67h41.24c9.79,0,19.26-1.36,28.24-3.89-.27-.93-.42-1.93-.42-2.95,0-.76.08-1.49.23-2.2.25-1.17.7-2.28,1.3-3.27l.04-.08c1.04-3.12,1.59-6.45,1.59-9.92,0-.31,0-.61-.01-.91,0-.26-.02-.51-.03-.76-.21-3.85-1.1-7.52-2.57-10.88-.07-.17-.05-.36.07-.51,2.12-2.59,3.62-5.7,4.29-9.11v-.14c-.84-6.92-3.03-13.42-6.29-19.24h0c-.52-.48-1.06-.93-1.62-1.36.17-.17.35-.35.52-.53,3.27-3.49,5.36-8.09,5.63-13.18l-.03-.2c-2.22-6.39-5.19-12.43-8.81-18.01-7.01-10.83-16.44-19.95-27.54-26.58,0,0-.01,0-.04-.02-1.27-.76-2.59-1.5-3.91-2.2.03-.04.06-.08.08-.14.57-1.3,0-7.01-.16-8.45-.02-.2.08-.39.26-.49,5.37-2.97,6.28-8.31,6.43-10.29.02-.36.41-.57.72-.41,2.05,1.03,3.76,1.87,5.21,2.54l.06-.07c6.38,2.94,7.58,2.65,10.5,2.25,3.2-.43,3.41-6.07,3.41-7.52,0-.21.13-.4.33-.47.87-.32,3.2-1.2,3.74-1.61.46-.35.31-1.82.17-2.67-.05-.3.19-.57.5-.57.8-.01,1.14-.36,1.27-.57.05-.08.07-.16.07-.26,0-.85.16-6.57,3.52-4.92,3.63,1.79,4.75-2.51,3.85-3.12-.8-.55-2.36-9.52-2.68-11.38-.03-.21.06-.41.24-.52,1.73-1,1.91-1.11,2.71-2.28.31-.45.49-2.61.6-5.15l.3-.42c.12-3.42.11-7.32.11-8.61,0-.26.19-.46.45-.5,4.3-.55,7.49-2.75,9.68-4.95l.03-.04,1.81-2.48c.31-.43-.17-.98-.64-.74-1.71.9-3.69,1.74-3.89,1.82h-.01s5.8-15.4,5.8-15.4c.19-.5-.43-.9-.82-.52ZM121.5,177.41c-1.79,6.55-7.99,13.12-12.11,16.91-1.6,1.47-2.88,2.52-3.47,2.99-.2.16-.49.14-.67-.04l-.87-.86c-.22-.22-.19-.58.06-.76.87-.61,2.78-2.02,4.89-3.94,1.31-1.2,2.69-2.59,3.93-4.11.02-.03.04-.05.07-.07,2.21-1.68,5.41-7.16,7.23-10.5.29-.52,1.09-.19.92.38ZM131.71,148.83c-.42.1-.85.19-1.29.29-.6.13-.86-.72-.3-.96,7.53-3.09,17.85-10.1,15.32-24.87,0-.04-.02-.08-.03-.11-.42-1.01-7.18-16.23-33.8-12.54-.57.08-.81-.71-.28-.95,8.25-3.78,31.17-12.12,37.83,8.39,0,.01,0,.02.01.03.3.75.62,1.49.96,2.22,1.52,3.23,5.54,13.17-2.49,20.92-3.15,3.05-8.17,5.76-15.94,7.59ZM166.65,180.18c-.31,1.62-1.44,7.57-2.18,11.46-.1.55-.89.55-.98,0-.93-5.41-3.52-7.21-3.52-7.21-.68-3.32-10.26-3.99-14.9-4.12-.56-.02-.67-.79-.16-.97,10.05-3.57,19.4-.45,21.42.28.23.08.37.32.32.56ZM174.58,156.9c-.09.09-.14.13-.14.13l-.22.19c.11-.08-.45-2.43-1.67-4.23-.35-.5-1.01-.83-1.8-1.07-.97-.28-2.11-.4-3.07-.44-.51-.03-.66-.72-.2-.95.9-.45,2.04-.95,3.19-1.26,2-.55,4.02-.53,4.77,1.33,1.44,3.57-.33,5.74-.86,6.29ZM206.63,202.41c1.25,4.23.05,7.09-.99,8.62-.29.43-.96.16-.91-.36.49-4.34-.16-8.15-.92-10.87-.32-1.14-.66-2.09-.95-2.81-.21-.51.45-.94.82-.54.48.51,1.05,1.29,1.61,2.44.45.91.91,2.06,1.34,3.52ZM203.49,167.16c1.79,3.18,2.91,7.08,2.73,10.63-.03.56-.83.66-.98.12-.67-2.37-2.21-5.79-5.78-8.31-.13-.09-.32-.12-.47-.06-.05.02-.11.04-.16.06-.29.11-.41.46-.24.73,1.31,2.08,3.22,5.4,4.16,8.61.17.59-.66.91-.93.36-2.1-4.27-4.38-7.01-6.61-8.71-4.18-3.2-8.16-2.78-10.35-2.15-.48.14-.84-.43-.51-.81,2.03-2.32,6.27-6.57,10.38-6.98.33-.03.66-.04.98-.03.46.03.92.12,1.37.27,2.37.79,4.7,3.19,6.42,6.27ZM191.51,129c.19.31.39.63.58.95,4.91,8.13,4.16,14.9,2.26,19.58-.12.3-.5.4-.76.2-.43-.33-.87-.64-1.3-.95-.14-.1-.21-.25-.21-.42.17-5.45-2.25-11.32-6.44-18.51-1.53-2.62-3.29-5.41-5.26-8.44-7.3-11.2-19.08-16.44-25.06-18.49-.58-.2-.36-1.06.24-.97.4.07.8.13,1.19.21.61.11.83-.76.26-.97-.89-.31-1.82-.56-2.44-.71-.32-.08-.49-.45-.31-.73.41-.67.74-1.47.99-2.38,1.53-5.48.41-14.79-.37-19.72-.09-.57.7-.82.95-.29,2.16,4.58,5.85,13.66,5.6,21.97-.04,1.29-.17,2.55-.42,3.78l-.14.45c4.15.21,10.52,4.02,10.52,4.02h.01c.37.23,10.82,6.54,20.1,21.43Z"/>
    <path class="cls-4" d="M100.53,166.57h0"/>
    <g>
      <path d="M37.53,305.45h-12.09l-3.02,18.89H0v-18.89h6.3l8.94-56.67h32.49l8.94,56.67h6.3v18.89h-22.42l-3.02-18.89ZM27.83,290.34h7.3l-3.65-22.67-3.65,22.67Z"/>
      <path d="M94.45,299.15v25.19h-25.19v-18.89h6.3v-37.78h-6.3v-18.89h44.08l12.59,12.59v22.04l-6.3,6.3,4.28,15.74h6.3v18.89h-20.65l-6.93-25.19h-8.19ZM94.45,280.26h12.59v-12.59h-12.59v12.59Z"/>
      <path d="M174.3,305.45v-9.45h18.89v28.34h-56.67v-18.89h6.3v-37.78h-6.3v-18.89h56.67v28.34h-18.89v-9.45h-12.59v12.59h12.59v12.59h-12.59v12.59h12.59Z"/>
      <path d="M237.27,248.78h25.19v18.89h-6.3v37.78h6.3v18.89h-21.41l-16.37-33.25v33.25h-25.19v-18.89h6.3v-37.78h-6.3v-18.89h21.41l16.37,33.12v-33.12Z"/>
      <path d="M306.28,305.45h-12.09l-3.02,18.89h-22.42v-18.89h6.3l8.94-56.67h32.49l8.94,56.67h6.3v18.89h-22.42l-3.02-18.89ZM296.59,290.34h7.3l-3.65-22.67-3.65,22.67Z"/>
    </g>
    <g>
      <path d="M89.14,333.39v89.43h9.94v29.81h-49.68v-29.81h9.94v-59.62h-9.94v-29.81h39.75Z"/>
      <path d="M109.01,432.76v-29.81l9.94-9.94-9.94-9.94v-29.81l19.87-19.87h41.73l19.87,19.87v29.81l-9.94,9.94,9.94,9.94v29.81l-19.87,19.87h-41.73l-19.87-19.87ZM138.82,383.08h21.86v-19.87h-21.86v19.87ZM138.82,422.82h21.86v-19.87h-21.86v19.87Z"/>
      <path d="M265.01,452.64h-44.71l-19.87-19.87v-79.49l19.87-19.87h44.71l19.87,19.87v79.49l-19.87,19.87ZM255.08,422.82v-59.62h-24.84v59.62h24.84Z"/>
    </g>
  </g>
</svg>