<svg width="408" height="192" viewBox="0 0 408 192" fill="none" xmlns="http://www.w3.org/2000/svg">
<path d="M144.537 13.15C142.924 14.6466 140.956 15.6464 139.665 16.1948C139.268 16.3625 138.886 15.9432 139.111 15.5948C139.753 14.5885 140.177 13.5886 140.444 12.8016C140.58 12.4017 140.088 12.0985 139.74 12.3565C138.12 13.5564 135.92 14.0724 134.512 14.2789C134.082 14.3434 133.822 13.8402 134.143 13.5564L134.396 13.337C134.683 13.079 134.505 12.6145 134.109 12.6145C130.269 12.5758 122.786 9.35685 119.602 7.94411C119.411 7.86025 119.233 7.78284 119.076 7.71188C118.734 7.56351 118.741 7.1055 119.076 6.95713C119.178 6.91843 119.281 6.86682 119.397 6.81521C119.793 6.64104 119.704 6.08627 119.267 6.02821C113.684 5.28636 102.437 0.635285 101.357 0.183725C101.302 0.157921 101.241 0.14502 101.179 0.14502C94.1341 0.157921 91.1342 2.79632 89.9316 4.51225C89.6924 4.85415 89.1389 4.69933 89.1252 4.29293C89.1184 4.04779 88.8997 3.88652 88.6742 3.88652C88.5649 3.88652 88.4556 3.92523 88.3667 4.00909C80.3307 11.8082 76.5382 23.4326 76.2512 24.3616C76.2376 24.4003 76.2308 24.439 76.2308 24.4841C76.9414 60.7638 53.0111 66.6921 46.3486 71.7561C42.0573 75.0137 40.1918 79.2133 40.2259 81.8904C40.2191 82.1936 40.2259 82.4387 40.2328 82.6193C40.2396 82.8322 40.4241 83.0064 40.6496 83.0128L40.9913 83.0322C41.4764 83.058 41.5721 83.7031 41.1074 83.845C32.0738 86.6059 23.5731 95.3791 22.7463 96.2564C22.7053 96.3016 22.6711 96.3597 22.6506 96.4177C17.2659 113.687 33.6181 125.692 36.1328 127.414C36.3104 127.537 36.3651 127.769 36.2558 127.956C34.6294 130.769 33.0236 135.665 32.0533 138.942C31.9234 139.387 31.2333 139.329 31.1854 138.864C30.3381 129.143 21.4411 117.241 19.7054 115.009C19.5483 114.809 19.2408 114.783 19.0494 114.951C8.18444 124.305 4.84977 132.652 4.50127 133.607C4.47394 133.665 4.47394 133.73 4.48077 133.794C6.36677 148.379 2.6016 154.514 2.02077 155.353C1.97977 155.417 1.9456 155.501 1.95244 155.585C1.95927 160.552 2.75194 162.739 3.0321 163.365C3.0936 163.494 3.0731 163.642 2.98427 163.758C0.285104 167.429 0.155271 172.125 0.148438 172.919C0.148438 172.996 0.175771 173.067 0.216771 173.131C0.947937 174.254 1.6381 175.376 2.28727 176.473C13.2411 183.575 25.9169 188.497 39.5973 190.555C39.6109 183.033 30.5089 172.39 29.5249 171.261C29.4703 171.196 29.4361 171.119 29.4293 171.035C29.0944 167.913 30.3791 163.81 31.3289 161.313C31.4793 160.913 32.1079 160.959 32.1831 161.384C33.2969 167.771 41.7634 182.692 40.6769 190.716C42.7611 191.007 44.8658 191.233 46.9909 191.387C47.9271 183.137 41.1689 170.061 39.9048 167.706C39.7954 167.5 39.8843 167.255 40.1029 167.151C40.7863 166.816 41.4559 166.481 42.1051 166.126C58.2044 157.333 62.3591 142.129 63.3909 133.613C63.4524 133.091 64.2724 133.136 64.2724 133.652C64.3134 141.148 62.2976 153.888 50.0044 163.758C49.7858 163.939 49.7994 164.261 50.0386 164.416C52.5259 166.029 64.0674 173.377 67.6276 173.564C71.1057 173.744 69.4248 187.968 68.9327 191.645H105.389C114.04 191.645 122.417 190.51 130.358 188.401C130.118 187.62 129.982 186.788 129.982 185.936C129.982 185.304 130.05 184.691 130.18 184.104C130.399 183.137 130.788 182.221 131.314 181.395C131.335 181.369 131.348 181.337 131.355 181.311C132.271 178.711 132.763 175.931 132.763 173.035C132.763 172.777 132.763 172.525 132.756 172.273C132.756 172.061 132.742 171.848 132.729 171.635C132.544 168.422 131.752 165.358 130.453 162.558C130.392 162.417 130.412 162.249 130.515 162.133C132.38 159.978 133.699 157.391 134.3 154.553C134.307 154.508 134.314 154.456 134.307 154.411C133.562 148.637 131.622 143.212 128.738 138.355C128.28 137.948 127.802 137.574 127.303 137.219C127.453 137.078 127.611 136.929 127.761 136.781C130.651 133.871 132.496 130.033 132.736 125.789C132.736 125.73 132.736 125.672 132.708 125.614C130.747 120.286 128.123 115.241 124.918 110.584C118.727 101.54 110.384 93.9341 100.571 88.3993C100.571 88.3993 100.564 88.3993 100.537 88.3799C99.4094 87.7413 98.2477 87.1285 97.0792 86.5479C97.1066 86.5156 97.1271 86.4769 97.1476 86.4253C97.6464 85.3416 97.1476 80.5744 97.0041 79.3745C96.9836 79.2068 97.0792 79.052 97.2364 78.9681C101.986 76.491 102.785 72.027 102.922 70.3756C102.942 70.0724 103.284 69.8982 103.564 70.0337C105.375 70.8916 106.892 71.5948 108.177 72.156L108.224 72.098C113.869 74.5557 114.928 74.3106 117.504 73.9816C120.34 73.6204 120.518 68.9177 120.518 67.7049C120.518 67.5307 120.634 67.3759 120.805 67.3179C121.57 67.0469 123.634 66.318 124.112 65.9761C124.522 65.6858 124.385 64.4601 124.262 63.7441C124.221 63.499 124.419 63.2667 124.686 63.2667C125.403 63.2667 125.711 62.9635 125.827 62.7894C125.875 62.7249 125.889 62.6539 125.889 62.5765C125.889 61.8669 126.025 57.0932 128.998 58.4737C132.203 59.9703 133.193 56.3772 132.401 55.8676C131.69 55.4096 130.317 47.9266 130.036 46.3655C130.009 46.1913 130.091 46.0236 130.255 45.9333C131.779 45.0946 131.95 45.0043 132.654 44.0302C132.927 43.6561 133.084 41.8499 133.187 39.734L133.453 39.3856C133.556 36.5279 133.549 33.2767 133.549 32.1994C133.549 31.9865 133.72 31.8123 133.945 31.7865C137.731 31.3285 140.546 29.5094 142.48 27.6773C142.5 27.6644 142.514 27.6451 142.528 27.6257L144.127 25.555C144.4 25.2002 143.976 24.7357 143.56 24.9421C142.049 25.6969 140.3 26.3936 140.129 26.4581H140.122L145.254 13.608C145.425 13.1887 144.872 12.8532 144.523 13.1693L144.537 13.15ZM52.3824 147.702C50.8039 153.166 45.3168 158.649 41.6814 161.817C40.2669 163.042 39.1394 163.92 38.6201 164.313C38.4424 164.449 38.1896 164.436 38.0324 164.281L37.2671 163.558C37.0758 163.378 37.0963 163.074 37.3218 162.92C38.0871 162.417 39.7818 161.236 41.6404 159.63C42.7953 158.63 44.0184 157.469 45.1186 156.198C45.1391 156.172 45.1596 156.159 45.1801 156.14C47.1413 154.74 49.9634 150.166 51.5761 147.38C51.8289 146.941 52.5328 147.218 52.3961 147.696L52.3824 147.702ZM61.4093 123.847C61.0334 123.931 60.6576 124.008 60.2749 124.085C59.7488 124.195 59.5164 123.479 60.0153 123.286C66.6709 120.705 75.7934 114.854 73.5658 102.527C73.5658 102.494 73.5521 102.462 73.5384 102.436C73.1694 101.591 67.1902 88.896 43.6563 91.9666C43.1506 92.0376 42.9456 91.3796 43.4034 91.1796C50.6946 88.0187 70.9554 81.0647 76.8526 98.1788C76.8526 98.1852 76.8526 98.1982 76.8594 98.2046C77.1259 98.8239 77.4061 99.4496 77.7136 100.056C79.0597 102.752 82.6062 111.048 75.5064 117.512C72.7184 120.06 68.2767 122.318 61.4161 123.847H61.4093ZM92.2959 150.018C92.0226 151.366 91.0249 156.34 90.3689 159.585C90.2801 160.043 89.5831 160.043 89.5011 159.585C88.6811 155.069 86.3919 153.572 86.3919 153.572C85.7837 150.805 77.3241 150.244 73.2172 150.134C72.7252 150.121 72.6227 149.476 73.0806 149.321C81.9707 146.347 90.2322 148.947 92.0157 149.56C92.2207 149.631 92.3437 149.831 92.3027 150.031L92.2959 150.018ZM99.3001 130.581C99.2181 130.659 99.1702 130.691 99.1702 130.691L98.9721 130.852C99.0677 130.781 98.5757 128.827 97.4961 127.324C97.1886 126.911 96.6077 126.627 95.9039 126.434C95.0497 126.201 94.0316 126.105 93.1911 126.066C92.7401 126.04 92.6034 125.466 93.0134 125.279C93.8061 124.905 94.8174 124.485 95.8356 124.227C97.5986 123.769 99.3889 123.782 100.052 125.337C101.323 128.317 99.7647 130.123 99.2864 130.581H99.3001ZM127.638 168.564C128.745 172.093 127.679 174.486 126.763 175.757C126.504 176.112 125.909 175.892 125.964 175.46C126.394 171.835 125.827 168.661 125.144 166.384C124.864 165.429 124.556 164.636 124.303 164.036C124.119 163.61 124.7 163.249 125.034 163.584C125.465 164.01 125.957 164.655 126.463 165.623C126.859 166.384 127.262 167.345 127.645 168.558L127.638 168.564ZM124.864 139.148C126.442 141.806 127.44 145.057 127.276 148.018C127.248 148.489 126.545 148.573 126.408 148.115C125.82 146.135 124.447 143.283 121.297 141.18C121.18 141.103 121.016 141.083 120.88 141.135C120.832 141.154 120.784 141.167 120.743 141.187C120.483 141.277 120.381 141.574 120.524 141.793C121.686 143.528 123.374 146.302 124.201 148.979C124.351 149.47 123.613 149.741 123.374 149.276C121.522 145.709 119.499 143.432 117.531 142.006C113.835 139.335 110.322 139.684 108.382 140.206C107.958 140.322 107.637 139.845 107.931 139.535C109.728 137.6 113.472 134.059 117.108 133.71C117.395 133.684 117.689 133.671 117.976 133.684C118.379 133.71 118.789 133.788 119.192 133.91C121.29 134.568 123.347 136.574 124.87 139.142L124.864 139.148ZM114.279 107.397C114.45 107.655 114.62 107.926 114.798 108.191C119.144 114.977 118.474 120.628 116.8 124.531C116.691 124.782 116.356 124.86 116.124 124.698C115.748 124.427 115.358 124.156 114.969 123.898C114.853 123.815 114.784 123.692 114.784 123.55C114.935 119.002 112.796 114.1 109.092 108.1C107.739 105.92 106.181 103.585 104.446 101.062C97.9949 91.715 87.5809 87.3414 82.2919 85.6319C81.7794 85.4641 81.9707 84.7481 82.5106 84.8255C82.8659 84.8836 83.2212 84.9352 83.5561 84.9997C84.0891 85.09 84.2941 84.361 83.7884 84.1933C83.0026 83.9353 82.1826 83.7224 81.6359 83.5998C81.3421 83.5289 81.2122 83.2128 81.3694 82.9741C81.7316 82.4193 82.0117 81.7549 82.2372 81.0066C83.5902 76.4329 82.5994 68.6661 81.9092 64.5504C81.8272 64.0731 82.5311 63.8667 82.7429 64.3053C84.6562 68.1242 87.9157 75.704 87.6902 82.6387C87.6561 83.7095 87.5399 84.7675 87.3212 85.7996L87.1982 86.1737C90.8609 86.3479 96.4984 89.5282 96.4984 89.5282H96.5052C96.8332 89.7217 106.072 94.9921 114.279 107.416V107.397Z" fill="white" stroke="white" stroke-width="0.29" stroke-miterlimit="10"/>
<path d="M187.639 36.7892L194.463 77.6251L194.532 78.0421H199.314V90.796H182.949L180.688 77.4591L180.618 77.0421H170.446L170.376 77.4591L168.115 90.796H151.75V78.0421H156.532L156.602 77.6251L163.426 36.7892H187.639ZM172.221 66.4532L172.121 67.0372H178.937L178.837 66.4532L176.021 49.9523H175.036L172.221 66.4532Z" fill="white" stroke="white"/>
<path d="M238.454 36.7764L247.863 45.6582V61.2705L243.161 65.709L242.939 65.9189L243.024 66.2109L246.325 77.668L246.429 78.0293H251.164V90.7832H236.11L230.871 72.8096L230.767 72.4492H222.819L223.584 73.1709V90.7891H205.164V78.0361H210.022V49.5293H205.164V36.7764H238.454ZM223.584 59.7031H234.295V49.5361H223.584V59.7031Z" fill="white" stroke="white"/>
<path d="M299.73 36.7827V56.4126H286.162V49.5356H275.451V59.7026H285.162V67.8696H275.451V78.0356H285.662V77.5425H286.162V71.1655H299.73V90.7954H257.031V78.0425H261.89V49.5356H257.031V36.7827H299.73Z" fill="white" stroke="white"/>
<path d="M321.284 36.7827L333.772 60.6284L334.716 60.396V36.7827H353.136V49.5356H348.277V78.0425H353.136V90.7954H337.43L324.941 66.8608L323.998 67.0923V90.7954H305.578V78.0425H310.437V49.5356H305.578V36.7827H321.284Z" fill="white" stroke="white"/>
<path d="M394.889 36.7892L401.713 77.6251L401.782 78.0421H406.564V90.796H390.199L387.938 77.4591L387.868 77.0421H377.696L377.626 77.4591L375.365 90.796H359V78.0421H363.782L363.852 77.6251L370.676 36.7892H394.889ZM379.464 66.4532L379.364 67.0372H386.18L386.08 66.4532L383.265 49.9523H382.279L379.464 66.4532Z" fill="white" stroke="white"/>
<path d="M222.808 104.291V167.354H230.229V187.378H194.117V167.354H201.538V124.314H194.117V104.291H222.808Z" fill="white" stroke="white"/>
<path d="M283.966 104.291L298.506 118.018V138.609L291.242 145.468L290.856 145.831L291.242 146.195L298.506 153.052V173.645L283.965 187.372H253.19L238.648 173.645V153.052L245.913 146.195L246.298 145.831L245.913 145.468L238.648 138.609V118.018L253.189 104.291H283.966ZM259.911 167.354H277.243V152.344H259.911V167.354ZM259.911 139.325H277.243V124.314H259.911V139.325Z" fill="white" stroke="white"/>
<path d="M354.482 104.297L369.022 118.024V173.651L354.481 187.379H321.479L306.938 173.651V118.024L321.479 104.297H354.482ZM328.2 167.355H347.76V124.314H328.2V167.355Z" fill="white" stroke="white"/>
<path d="M195.353 75.955C194.786 75.8714 194.205 75.8135 193.617 75.7878C193.856 75.7621 194.102 75.7557 194.342 75.7685C194.676 75.7878 195.018 75.8521 195.353 75.955Z" fill="black" stroke="black" stroke-width="0.24" stroke-miterlimit="10"/>
<path d="M195.353 75.955C194.786 75.8714 194.205 75.8135 193.617 75.7878C193.856 75.7621 194.102 75.7557 194.342 75.7685C194.676 75.7878 195.018 75.8521 195.353 75.955Z" fill="black" stroke="black" stroke-width="0.24" stroke-miterlimit="10"/>
<path d="M195.353 75.955C194.786 75.8714 194.205 75.8135 193.617 75.7878C193.856 75.7621 194.102 75.7557 194.342 75.7685C194.676 75.7878 195.018 75.8521 195.353 75.955Z" fill="black" stroke="black" stroke-width="0.24" stroke-miterlimit="10"/>
</svg>
